<svg xmlns="http://www.w3.org/2000/svg" viewBox="0 0 320 290" width="320" height="290">
  <defs>
    <linearGradient id="bgGrad" x1="0%" y1="0%" x2="100%" y2="100%">
      <stop offset="0%" stop-color="#0d1730"/>
      <stop offset="100%" stop-color="#16223f"/>
    </linearGradient>
    <linearGradient id="orangeGrad" x1="0%" y1="0%" x2="100%" y2="100%">
      <stop offset="0%" stop-color="#ff9a4d"/>
      <stop offset="100%" stop-color="#ea580c"/>
    </linearGradient>
    <linearGradient id="blueGrad" x1="0%" y1="0%" x2="100%" y2="100%">
      <stop offset="0%" stop-color="#6fc3ff"/>
      <stop offset="100%" stop-color="#3fa9f5"/>
    </linearGradient>
  </defs>

  <circle cx="160" cy="145" r="138" fill="url(#bgGrad)" stroke="#1e3a5f" stroke-width="3"/>

  <!-- Brain silhouette (circuit-style arcs) -->
  <g fill="none" stroke="url(#blueGrad)" stroke-width="5" stroke-linecap="round">
    <path d="M100 105 C90 75 120 50 150 57 C160 40 190 40 200 57 C230 53 250 80 238 107
             C255 120 255 150 238 163 C245 190 220 210 195 203
             C185 220 155 220 145 203 C115 210 90 185 98 157
             C82 143 82 120 100 105 Z"/>
    <path d="M150 57 C150 95 150 135 150 175"/>
    <path d="M180 63 C178 100 182 140 178 195"/>
    <path d="M112 113 C130 117 132 135 118 143 C132 151 132 169 116 175"/>
    <path d="M215 95 C198 103 198 123 214 129 C198 137 198 157 216 165"/>
  </g>

  <!-- AI circuit nodes -->
  <g fill="url(#blueGrad)">
    <circle cx="150" cy="57" r="4.5"/>
    <circle cx="180" cy="63" r="4.5"/>
    <circle cx="112" cy="113" r="4.5"/>
    <circle cx="215" cy="95" r="4.5"/>
    <circle cx="150" cy="175" r="4.5"/>
    <circle cx="178" cy="195" r="4.5"/>
  </g>

  <!-- Rail track -->
  <g stroke="url(#orangeGrad)" stroke-width="6" stroke-linecap="round">
    <line x1="55" y1="233" x2="265" y2="233"/>
    <line x1="55" y1="247" x2="265" y2="247"/>
  </g>
  <g stroke="url(#orangeGrad)" stroke-width="5" stroke-linecap="round">
    <line x1="70" y1="227" x2="70" y2="253"/>
    <line x1="95" y1="227" x2="95" y2="253"/>
    <line x1="120" y1="227" x2="120" y2="253"/>
    <line x1="145" y1="227" x2="145" y2="253"/>
    <line x1="170" y1="227" x2="170" y2="253"/>
    <line x1="195" y1="227" x2="195" y2="253"/>
    <line x1="220" y1="227" x2="220" y2="253"/>
    <line x1="245" y1="227" x2="245" y2="253"/>
  </g>

  <!-- Accent ring -->
  <g stroke="#ff7a1a" stroke-width="1.4" opacity="0.45">
    <circle cx="160" cy="145" r="118" fill="none" stroke-dasharray="2 6"/>
  </g>
  <!-- NO TEXT in SVG — title shown by HTML below the logo -->
</svg>
