<svg xmlns="http://www.w3.org/2000/svg" viewBox="0 0 320 320" width="320" height="320">
  <defs>
    <linearGradient id="bgGrad" x1="0%" y1="0%" x2="100%" y2="100%">
      <stop offset="0%" stop-color="#0d1730"/>
      <stop offset="100%" stop-color="#16223f"/>
    </linearGradient>
    <linearGradient id="orangeGrad" x1="0%" y1="0%" x2="100%" y2="100%">
      <stop offset="0%" stop-color="#ff9a4d"/>
      <stop offset="100%" stop-color="#ff7a1a"/>
    </linearGradient>
    <linearGradient id="blueGrad" x1="0%" y1="0%" x2="100%" y2="100%">
      <stop offset="0%" stop-color="#6fc3ff"/>
      <stop offset="100%" stop-color="#3fa9f5"/>
    </linearGradient>
  </defs>

  <circle cx="160" cy="160" r="150" fill="url(#bgGrad)" stroke="#22304f" stroke-width="3"/>

  <!-- Brain silhouette formed from circuit-style arcs -->
  <g fill="none" stroke="url(#blueGrad)" stroke-width="5" stroke-linecap="round">
    <path d="M100 120 C90 90 120 65 150 72 C160 55 190 55 200 72 C230 68 250 95 238 122
             C255 135 255 165 238 178 C245 205 220 225 195 218
             C185 235 155 235 145 218 C115 225 90 200 98 172
             C82 158 82 135 100 120 Z"/>
    <path d="M150 72 C150 110 150 150 150 190"/>
    <path d="M180 78 C178 115 182 155 178 210"/>
    <path d="M112 128 C130 132 132 150 118 158 C132 166 132 184 116 190"/>
    <path d="M215 110 C198 118 198 138 214 144 C198 152 198 172 216 180"/>
  </g>

  <!-- AI circuit nodes -->
  <g fill="url(#blueGrad)">
    <circle cx="150" cy="72" r="4.5"/>
    <circle cx="180" cy="78" r="4.5"/>
    <circle cx="112" cy="128" r="4.5"/>
    <circle cx="215" cy="110" r="4.5"/>
    <circle cx="150" cy="190" r="4.5"/>
    <circle cx="178" cy="210" r="4.5"/>
  </g>

  <!-- Rail track running beneath the brain -->
  <g stroke="url(#orangeGrad)" stroke-width="6" stroke-linecap="round">
    <line x1="55" y1="248" x2="265" y2="248"/>
    <line x1="55" y1="262" x2="265" y2="262"/>
  </g>
  <g stroke="url(#orangeGrad)" stroke-width="5" stroke-linecap="round">
    <line x1="70" y1="242" x2="70" y2="268"/>
    <line x1="95" y1="242" x2="95" y2="268"/>
    <line x1="120" y1="242" x2="120" y2="268"/>
    <line x1="145" y1="242" x2="145" y2="268"/>
    <line x1="170" y1="242" x2="170" y2="268"/>
    <line x1="195" y1="242" x2="195" y2="268"/>
    <line x1="220" y1="242" x2="220" y2="268"/>
    <line x1="245" y1="242" x2="245" y2="268"/>
  </g>

  <!-- Ashoka-chakra-inspired accent ring (24-spoke motif, abstracted, non-flag use) -->
  <g stroke="#ff7a1a" stroke-width="1.4" opacity="0.55">
    <circle cx="160" cy="160" r="128" fill="none" stroke-dasharray="2 6"/>
  </g>

  <text x="160" y="300" font-family="Segoe UI, Arial, sans-serif" font-size="20" font-weight="800"
        text-anchor="middle" fill="#e7ecf5" letter-spacing="1">RAILWAYBRAIN<tspan fill="#ff7a1a"> AI</tspan></text>
</svg>
